<svg xmlns="http://www.w3.org/2000/svg" width="900" height="600" viewBox="0 0 3600 2400">
  <!--
    Copyright 2021 by Bloodmosher
  -->
  <defs>
    <style>
      .cls-1 {
        fill: #172bc3;
      }

      .cls-1, .cls-2, .cls-3 {
        stroke: #000;
        stroke-width: 1px;
      }

      .cls-1, .cls-2 {
        fill-rule: evenodd;
      }

      .cls-2, .cls-3 {
        fill: #fff;
      }
    </style>
  </defs>
  <path id="Shape_319_1" data-name="Shape 319 1" class="cls-1" d="M3154.59,1040.96c-36.66,3.65-66.45,3.65-96.22,3.65v85.19h93.52c-0.02,51.84-4.51,150.48-.22,180.16-23.8.06-61.2,0-86.32,0,0-117.83,7.91-131.82-64.43-127.09-18.34,1.2-46.28-4.2-48.64,26.53v100.56H2809.9c-24.19-26.54-15.71-14.43-39.9-40.96-119.76,3.51-1292.93-1.85-2460-1-0.931-.47-27.084-37.18-28.014-37.65q-37.684-46.785-75.377-93.57H75.4c-9.064-11.05-22.15-22.12-26.521-37.71-6.563-23.4-.609-171.59,5.584-185.741,28.387-44.678,85.9-10.663,147.962-23.742C220.39,885.8,231.6,862.333,276.4,803H615V440a87,87,0,0,1,87-87H1783a87,87,0,0,1,87,87V803h851.96q28.62,30.721,57.23,61.449h348.97c29.99,0,21.57-3.4,26.31,16.759C3157.95,896.035,3160.19,1008.44,3154.59,1040.96Z"/>
  <path id="Rounded_Rectangle_1" data-name="Rounded Rectangle 1" class="cls-2" d="M2138,888h418a25,25,0,0,1,25,25v214a25,25,0,0,1-25,25H2138a25,25,0,0,1-25-25V913A25,25,0,0,1,2138,888Z"/>
  <circle id="Connector_Hole_1" data-name="Connector Hole 1" class="cls-3" cx="2053" cy="1014" r="42"/>
  <circle id="Connector_Hole_2" data-name="Connector Hole 2" class="cls-3" cx="2647" cy="1014" r="42"/>
  <circle id="Button_Hole_1" data-name="Button Hole 1" class="cls-3" cx="1482" cy="1104" r="84"/>
</svg>
